<svg xmlns="http://www.w3.org/2000/svg" viewBox="0 0 1697 644" width="1697" height="644">
<path fill="#12100F" fill-rule="evenodd" d="M1498,242 1410,242 1407,243 1404,246 1322,412 1320,411 1283,329 1242,244 1238,242 1150,242 1147,244 1146,250 1161,279 1164,288 1272,511 1226,598 1212,622 1212,627 1214,630 1216,631 1300,631 1305,628 1502,251 1502,245Z M950,266 924,251 903,243 871,237 842,237 815,242 795,249 769,265 754,278 752,276 752,245 748,242 671,242 667,245 666,248 666,626 669,630 673,631 674,630 675,631 747,631 751,629 752,627 752,503 754,500 780,520 794,527 814,534 835,538 869,538 897,533 919,525 935,517 961,498 975,483 986,467 1000,436 1005,415 1007,397 1006,365 1001,340 989,311 974,289 965,279Z M816,310 826,309 847,310 860,313 872,318 886,327 901,342 913,366 915,376 915,398 911,414 900,434 881,452 869,459 855,464 844,466 820,466 798,460 786,454 776,447 764,435 755,421 751,411 748,396 749,372 753,359 761,344 773,331 785,322 801,314Z M311,301 295,328 287,351 282,383 283,410 288,434 293,449 302,467 317,488 331,502 345,513 367,525 388,533 418,539 445,540 471,537 497,529 517,519 542,500 543,501 543,532 547,535 624,535 628,532 629,529 628,525 628,511 629,510 629,490 628,489 628,479 629,478 629,405 628,404 629,399 629,387 628,386 629,380 629,350 628,349 629,254 627,244 623,242 552,242 548,245 548,261 546,278 534,266 521,257 501,247 485,242 457,237 429,237 412,239 384,246 352,262 330,279Z M439,311 449,310 470,311 483,314 499,321 509,328 525,345 533,359 536,368 538,379 538,396 534,414 527,428 517,441 508,449 498,456 480,464 464,467 443,467 421,461 406,453 389,438 382,429 374,413 371,399 371,377 375,362 381,350 391,337 408,323 422,316Z M368,132 343,132 342,131 334,132 15,132 12,135 12,210 15,213 138,213 140,215 139,216 140,221 140,308 139,309 140,310 140,532 144,535 230,535 234,532 234,215 236,213 367,213 371,210 371,135Z M1040,115 1037,116 1035,119 1035,531 1039,535 1120,535 1124,532 1124,505 1125,504 1125,494 1124,493 1124,284 1125,283 1124,280 1124,269 1125,268 1124,261 1124,243 1125,242 1124,235 1124,222 1125,221 1124,215 1124,194 1125,193 1124,191 1124,118 1120,115Z"/>
<path fill="#63CD03" fill-rule="evenodd" d="M1627,14 1616,12 1597,12 1579,16 1566,22 1555,30 1546,39 1537,53 1533,63 1530,78 1531,99 1534,109 1539,119 1546,128 1558,138 1572,145 1592,149 1617,149 1619,151 1608,173 1594,192 1573,212 1553,224 1547,229 1545,235 1546,241 1553,254 1562,259 1575,255 1596,244 1623,224 1639,208 1650,194 1662,175 1672,154 1678,137 1684,106 1684,82 1678,57 1668,40 1657,29 1647,22Z"/>
</svg>
